<svg id="visual" viewBox="0 0 960 540" width="960" height="540" xmlns="http://www.w3.org/2000/svg" xmlns:xlink="http://www.w3.org/1999/xlink" version="1.1"><rect x="0" y="0" width="960" height="540" fill="#001220"></rect><path d="M0 135L26.7 145C53.3 155 106.7 175 160 175C213.3 175 266.7 155 320 148.3C373.3 141.7 426.7 148.3 480 167.8C533.3 187.3 586.7 219.7 640 233.5C693.3 247.3 746.7 242.7 800 239C853.3 235.3 906.7 232.7 933.3 231.3L960 230L960 541L933.3 541C906.7 541 853.3 541 800 541C746.7 541 693.3 541 640 541C586.7 541 533.3 541 480 541C426.7 541 373.3 541 320 541C266.7 541 213.3 541 160 541C106.7 541 53.3 541 26.7 541L0 541Z" fill="#fa7268"></path><path d="M0 303L26.7 308.5C53.3 314 106.7 325 160 315.7C213.3 306.3 266.7 276.7 320 269.8C373.3 263 426.7 279 480 287.7C533.3 296.3 586.7 297.7 640 279.5C693.3 261.3 746.7 223.7 800 228.2C853.3 232.7 906.7 279.3 933.3 302.7L960 326L960 541L933.3 541C906.7 541 853.3 541 800 541C746.7 541 693.3 541 640 541C586.7 541 533.3 541 480 541C426.7 541 373.3 541 320 541C266.7 541 213.3 541 160 541C106.7 541 53.3 541 26.7 541L0 541Z" fill="#ef5f67"></path><path d="M0 260L26.7 264C53.3 268 106.7 276 160 293.8C213.3 311.7 266.7 339.3 320 345.8C373.3 352.3 426.7 337.7 480 329.2C533.3 320.7 586.7 318.3 640 322.5C693.3 326.7 746.7 337.3 800 336.5C853.3 335.7 906.7 323.3 933.3 317.2L960 311L960 541L933.3 541C906.7 541 853.3 541 800 541C746.7 541 693.3 541 640 541C586.7 541 533.3 541 480 541C426.7 541 373.3 541 320 541C266.7 541 213.3 541 160 541C106.7 541 53.3 541 26.7 541L0 541Z" fill="#e34c67"></path><path d="M0 381L26.7 391C53.3 401 106.7 421 160 427.2C213.3 433.3 266.7 425.7 320 426C373.3 426.3 426.7 434.7 480 426.5C533.3 418.3 586.7 393.7 640 384.3C693.3 375 746.7 381 800 385.2C853.3 389.3 906.7 391.7 933.3 392.8L960 394L960 541L933.3 541C906.7 541 853.3 541 800 541C746.7 541 693.3 541 640 541C586.7 541 533.3 541 480 541C426.7 541 373.3 541 320 541C266.7 541 213.3 541 160 541C106.7 541 53.3 541 26.7 541L0 541Z" fill="#d53867"></path><path d="M0 441L26.7 448.8C53.3 456.7 106.7 472.3 160 471.7C213.3 471 266.7 454 320 450C373.3 446 426.7 455 480 453.2C533.3 451.3 586.7 438.7 640 441.7C693.3 444.7 746.7 463.3 800 464.7C853.3 466 906.7 450 933.3 442L960 434L960 541L933.3 541C906.7 541 853.3 541 800 541C746.7 541 693.3 541 640 541C586.7 541 533.3 541 480 541C426.7 541 373.3 541 320 541C266.7 541 213.3 541 160 541C106.7 541 53.3 541 26.7 541L0 541Z" fill="#c62368"></path></svg>